/* XPM */
static char *julia__[] = {
/* columns rows colors chars-per-pixel */
"32 32 72 1",
"  c #00DF86",
". c #00E089",
"X c #00E494",
"o c #00EAA3",
"O c #00EDAE",
"+ c #00EEB4",
"@ c #00EFB9",
"# c #00F1BD",
"$ c #00F3C2",
"% c #0BF3C6",
"& c #1DF3C7",
"* c #1CF3C8",
"= c #25F3C7",
"- c #25F5CB",
"; c #2BF4CA",
": c #31F2C5",
"> c #34F5CB",
", c #3CF4CC",
"< c #43F5CE",
"1 c #4CF3CB",
"2 c #53F4CE",
"3 c #58F4CE",
"4 c #46F6D1",
"5 c #4BF6D2",
"6 c #53F6D2",
"7 c #5BF6D3",
"8 c #54F8D6",
"9 c #5CF8D8",
"0 c #63F6D4",
"q c #6BF6D5",
"w c #6EF7D8",
"e c #66FADD",
"r c #74F6D7",
"t c #73F7D8",
"y c #7BF7D9",
"u c #75F8DB",
"i c #7DF8DB",
"p c #81F6D7",
"a c #83F7DA",
"s c #8CF7DC",
"d c #83F9DD",
"f c #89F9DE",
"g c #93F7DC",
"h c #99F7DF",
"j c #91F8DF",
"k c #8BFAE1",
"l c #9AF7E0",
"z c #94F9E1",
"x c #9DF9E2",
"c c #A5F7E1",
"v c #A1F9E3",
"b c #ACF9E5",
"n c #A2FBE8",
"m c #ACFBE9",
"M c #B4F9E6",
"N c #BAF9E6",
"B c #B4FBEA",
"V c #BBFAEA",
"C c #C3FBEC",
"Z c #CBFBEE",
"A c #D5FAEF",
"S c #CDFCF2",
"D c #D4FCF2",
"F c #DBFCF4",
"G c #D7FEF8",
"H c #DBFEF9",
"J c #E2FCF6",
"K c #E9FCF7",
"L c #E5FEFA",
"P c #EDFDF9",
"I c #F3FDFB",
"U c #FCFCFC",
/* pixels */
"UUUUUUUUUUUUUUUUUUUUUUUUUUUUUUUU",
"UUUUUUUUUUUAJIUUUUDDFUUUUUUUUUUU",
"UUUUUUUUIgNDanFUUZmdrJCUUUUUUUUU",
"UUUUUUUUMb7st#1PUFUK0jdDUUUUUUUU",
"UUUUUUUUPUCa6o+CUIIICu+NUUUUUUUU",
"UUUUUUPbDPNl;<0VIIIIb7zPJIUUUUUU",
"UUUUUPz@<y$=BsqBJUID<,JUDbUUUUUU",
"UUUUUZBrv17rSM$6tZHs7$ZPCwKUUUUU",
"UUUUUPC=BPFDFcOe$+GL0qG71sIUUUUU",
"UUUUUb,MPIIIIJry%&jS-7k,SUKUUUUU",
"UUUUUDiJIIIIIID2dy+,u&*kjpDUUUUU",
"UUUUUJyKIIIIIIJfGSd4#+@;sCIUUUUU",
"UUUUUUMVDKUIIIIHLGz7#.X>sCUUUUUU",
"UUUUUUUZSIUIIIINpt+6>+@0bIUUUUUU",
"UUUUUUUUUUIIIUC@O5mB6wdVIUUUUUUU",
"UUUUUUUUUUUIPNs091BVvDKUUUUUUUUU",
"UUUUUUUUUKDxBV187sVPIUUUUUUUUUUU",
"UUUUUUUINiq6mb6O+CUIIIUUUUUUUUUU",
"UUUUUUIb0@+-6+tgNIIIIUISZIUUUUUU",
"UUUUUUCs,X #9xGLHIIIIUKDCcUUUUUU",
"UUUUUICs>#+#>tCHdFIIIIIIPiFUUUUU",
"UUUUUDfzz*;w3+qd1SIIIIIILiSUUUUU",
"UUUUUPUS>zq$Sv&$u0FIIIIPM<vUUUUU",
"UUUUUIs27Gr7HH@#eOgFZFLV=CIUUUUU",
"UUUUUPuCID$6aFFa6$bGr8:xrbCUUUUU",
"UUUUUUMSUL5,DIIKVryB:$a2+zPUUUUU",
"UUUUUUIJPj0bIIIUC0,-xCIFNPUUUUUU",
"UUUUUUUUC+wBIIIUS@o5yBUKUUUUUUUU",
"UUUUUUUUJfx0JUDII0#qh7vMIUUUUUUU",
"UUUUUUUUUZJaibZUUJmsZZgIUUUUUUUU",
"UUUUUUUUUUUJFFUUUUUKDUUUUUUUUUUU",
"UUUUUUUUUUUUUUUUUUUUUUUUUUUUUUUU"
};
