/* XPM */
static char *julia__[] = {
/* columns rows colors chars-per-pixel */
"16 16 145 2",
"   c #00ECAD",
".  c #00EDAF",
"X  c #00EEB7",
"o  c #00EFB8",
"O  c #00F1BE",
"+  c #00F1BF",
"@  c #00F1C0",
"#  c #00F2C0",
"$  c #00F2C3",
"%  c #00F2C4",
"&  c #00F3C6",
"*  c #00F3C7",
"=  c #1FF2C5",
"-  c #2CF3C7",
";  c #33F4CB",
":  c #3FF4CC",
">  c #50F5D0",
",  c #53F5D0",
"<  c #55F5D1",
"1  c #56F6D1",
"2  c #63F6D3",
"3  c #64F5D2",
"4  c #66F5D2",
"5  c #61F7D6",
"6  c #66F7D7",
"7  c #6BF6D3",
"8  c #68F6D4",
"9  c #6DF6D6",
"0  c #6EF6D6",
"q  c #71F6D5",
"w  c #7BF6D7",
"e  c #7CF6D8",
"r  c #7DF6D8",
"t  c #7FF6D8",
"y  c #77F8DA",
"u  c #78F8DA",
"i  c #7FF8DA",
"p  c #8BF6DA",
"a  c #84F8DB",
"s  c #88F8DD",
"d  c #8BF8DE",
"f  c #8FF8DD",
"g  c #92F7DC",
"h  c #9AF7DF",
"j  c #90F8DD",
"k  c #9DF8DF",
"l  c #97F8E0",
"z  c #9AF8E0",
"x  c #98F9E2",
"c  c #9FF9E2",
"v  c #9EF9E3",
"b  c #9FFAE4",
"n  c #A3F9E2",
"m  c #A2F9E3",
"M  c #A4F9E3",
"N  c #A5F9E3",
"B  c #A1F9E4",
"V  c #A2F9E4",
"C  c #A5FAE5",
"Z  c #A5FAE6",
"A  c #A9F9E5",
"S  c #A9FAE6",
"D  c #A9FAE7",
"F  c #ACF9E6",
"G  c #ADFAE8",
"H  c #B1FAE7",
"J  c #B5F9E7",
"K  c #B3FAE8",
"L  c #B6FAE8",
"P  c #B8FAEA",
"I  c #B9FAEA",
"U  c #BCFAEB",
"Y  c #BDFBEB",
"T  c #C4FBED",
"R  c #C7FAEC",
"E  c #C6FBEE",
"W  c #CAF9EB",
"Q  c #C9FAED",
"!  c #CBFAED",
"~  c #CCFBEF",
"^  c #D1FAED",
"/  c #D0FBEF",
"(  c #D1FBEF",
")  c #CEFBF0",
"_  c #CFFBF0",
"`  c #D3FBF0",
"'  c #D4FBF1",
"]  c #D5FBF2",
"[  c #D1FCF2",
"{  c #D4FCF3",
"}  c #D7FCF3",
"|  c #DBFBF2",
" . c #DFFBF3",
".. c #D9FCF4",
"X. c #DBFCF4",
"o. c #DCFCF4",
"O. c #DDFCF4",
"+. c #DFFCF5",
"@. c #E1FBF3",
"#. c #E2FBF4",
"$. c #E3FBF4",
"%. c #E4FBF5",
"&. c #E6FBF5",
"*. c #E1FCF6",
"=. c #E3FDF7",
"-. c #E9FDF9",
";. c #EBFDF9",
":. c #EBFDFA",
">. c #F1FCF9",
",. c #F3FCF9",
"<. c #F0FDFA",
"1. c #F2FDFB",
"2. c #F3FDFB",
"3. c #F4FCF9",
"4. c #F4FCFA",
"5. c #F5FCFA",
"6. c #F5FCFB",
"7. c #F4FDFB",
"8. c #F5FDFB",
"9. c #F6FCFA",
"0. c #F6FDFB",
"q. c #F6FDFC",
"w. c #F7FEFD",
"e. c #FAFCFB",
"r. c #F8FDFC",
"t. c #F9FDFD",
"y. c #FBFCFC",
"u. c #FAFDFD",
"i. c #FBFDFD",
"p. c #F8FEFD",
"a. c #F9FEFE",
"s. c #FAFEFE",
"d. c #FBFEFF",
"f. c gray99",
"g. c #FDFCFC",
"h. c #FDFDFC",
"j. c #FDFCFD",
"k. c #FDFDFD",
"l. c #FEFCFD",
"z. c #FEFDFD",
"x. c #FFFDFD",
"c. c #FEFDFE",
"v. c #FFFDFE",
"b. c #FFFDFF",
"n. c #FFFEFF",
/* pixels */
"f.f.f.f.f.4.0.b.e.$.3.b.f.f.f.f.",
"f.f.f.b.Q M 7 W 1.Y l ! v.y.f.f.",
"f.f.x. .X.m # p n.a.a h v.f.f.f.",
"f.l.8.t 3 9 B 2 ) { > *.J >.x.f.",
"y.v.%.j ..:.' : $ D u s n 4.z.f.",
"y.v. .H s.2.p.U Z 1 + = C >.x.f.",
"f.h.j.` +.q.t.o.A 6 . X T x.y.f.",
"f.f.k.x.v.u.;.r & V v _ y.k.f.f.",
"f.f.k.y.~ x B * w ;.i.c.z.k.f.f.",
"f.y.x.E o   5 F X.t.0.*./ f.k.f.",
"f.z.,.S - @ < b P w.7.d.K | b.y.",
"f.z.6.M d y G % ; / -.} f #.v.y.",
"f.z.,.L =., [ ] 8 v 0 4 e 4.l.f.",
"f.f.f.b.k i w.n.g O c O.@.x.f.f.",
"f.g.y.v.( z I <.^ q N R v.f.f.f.",
"f.f.f.f.v.9.&.e.b.r.5.k.f.f.f.f."
};
