/* XPM */
static char *minimand__[] = {
/* columns rows colors chars-per-pixel */
"16 16 208 2",
"   c black",
".  c #010000",
"X  c #000100",
"o  c #000101",
"O  c #020000",
"+  c #000201",
"@  c #000202",
"#  c #050000",
"$  c #060000",
"%  c #0C0000",
"&  c #0D0000",
"*  c #0E0000",
"=  c #020805",
"-  c #000909",
";  c #000A09",
":  c #000B0A",
">  c #000C09",
",  c #040E0A",
"<  c #100000",
"1  c #120000",
"2  c #140000",
"3  c #150000",
"4  c #170000",
"5  c #1B0000",
"6  c #1E0000",
"7  c #01100B",
"8  c #02110D",
"9  c #00130D",
"0  c #02120F",
"q  c #08160F",
"w  c #191300",
"e  c #181900",
"r  c #001410",
"t  c #001511",
"y  c #001712",
"u  c #021E17",
"i  c #001E18",
"p  c #1E1E19",
"a  c #210000",
"s  c #241D15",
"d  c #1C2306",
"f  c #002019",
"g  c #00361C",
"h  c #003021",
"j  c #00401E",
"k  c #00441E",
"l  c #00561E",
"z  c #004B22",
"x  c #18422A",
"c  c #004B36",
"v  c #085733",
"b  c #005E3E",
"n  c #214A37",
"m  c #006839",
"M  c #175A42",
"N  c #195D45",
"B  c #00644D",
"V  c #126648",
"C  c #007E57",
"Z  c #007F60",
"A  c #00845B",
"S  c #00825C",
"D  c #008360",
"F  c #009163",
"G  c #009463",
"H  c #009F63",
"J  c #00966B",
"K  c #009571",
"L  c #009C76",
"P  c #00B67D",
"I  c #00A781",
"U  c #00A881",
"Y  c #00CA94",
"T  c #00C79A",
"R  c #00CE9F",
"E  c #00D3A7",
"W  c #17D2AA",
"Q  c #19DEB4",
"!  c #3CC9AD",
"~  c #31D7B0",
"^  c #00E2B3",
"/  c #00E8B7",
"(  c #00ECB7",
")  c #00F0BA",
"_  c #00FACC",
"`  c #1CF2C7",
"'  c #13FAD2",
"]  c #39EDC6",
"[  c #20F4C9",
"{  c #3DF4CC",
"}  c #3CF7CF",
"|  c #2DFFD9",
" . c #39FFDE",
".. c #33FFE0",
"X. c #45E9C3",
"o. c #41EEC7",
"O. c #40F6D0",
"+. c #4EFADB",
"@. c #54FDDA",
"#. c #59FAD9",
"$. c #59FDDD",
"%. c #61F9D9",
"&. c #64FADB",
"*. c #69FADF",
"=. c #70F5D7",
"-. c #73FADD",
";. c #70FADF",
":. c #54FFE4",
">. c #64FFE1",
",. c #6DFFEC",
"<. c #73FCE1",
"1. c #7AFCE5",
"2. c #78FEE6",
"3. c #77FFEB",
"4. c #7BFFEB",
"5. c #7EFFEC",
"6. c #81F4DA",
"7. c #89FBE7",
"8. c #8EF9E4",
"9. c #80FFE8",
"0. c #8AFEE8",
"q. c #93FCE7",
"w. c #9FF9E7",
"e. c #93FFE9",
"r. c #91FDEA",
"t. c #92FFEF",
"y. c #97FEED",
"u. c #98FDEA",
"i. c #9DFCEB",
"p. c #9FFDEC",
"a. c #8BFFF0",
"s. c #A5FAEC",
"d. c #A0FCEC",
"f. c #A3FDEF",
"g. c #A7FEEF",
"h. c #A9FCEE",
"j. c #ABFCEF",
"k. c #AEFDEF",
"l. c #B7FCEF",
"z. c #A7FFF1",
"x. c #A5FFF2",
"c. c #ADFDF0",
"v. c #ADFEF2",
"b. c #ABFFF4",
"n. c #B2FDF1",
"m. c #B3FEF3",
"M. c #B4FDF0",
"N. c #B5FDF0",
"B. c #B4FDF1",
"V. c #B7FDF2",
"C. c #B6FFF3",
"Z. c #BDFAF0",
"A. c #B8FDF1",
"S. c #BBFDF1",
"D. c #BAFDF2",
"F. c #BBFDF2",
"G. c #B9FEF2",
"H. c #BCFDF2",
"J. c #BCFDF3",
"K. c #BEFDF2",
"L. c #BFFDF2",
"P. c #BFFCF3",
"I. c #C0FDF2",
"U. c #C1FDF2",
"Y. c #C1FDF3",
"T. c #C2FDF2",
"R. c #C3FDF2",
"E. c #C2FDF3",
"W. c #C3FDF3",
"Q. c #C1FEF3",
"!. c #C4FDF3",
"~. c #C5FDF3",
"^. c #C6FDF3",
"/. c #C4FDF4",
"(. c #C5FDF4",
"). c #C7FDF4",
"_. c #C5FEF4",
"`. c #C4FEF5",
"'. c #C8FDF3",
"]. c #C9FDF4",
"[. c #CAFDF4",
"{. c #CBFDF4",
"}. c #C9FFF7",
"|. c #CCFDF4",
" X c #CEFDF5",
".X c #CFFDF5",
"XX c #CFFEF5",
"oX c #D0FDF5",
"OX c #D1FDF5",
"+X c #D2FDF5",
"@X c #D3FDF5",
"#X c #D2FDF6",
"$X c #D3FDF6",
"%X c #D3FEF7",
"&X c #D4FDF6",
"*X c #D5FDF6",
"=X c #D7FDF6",
"-X c #D7FDF7",
";X c #D8FDF6",
":X c #D8FDF7",
">X c #D9FDF7",
",X c #DAFDF7",
"<X c #DCFDF7",
"1X c #DDFDF7",
"2X c #DFFDF8",
"3X c #E0FDF8",
"4X c #E1FDF8",
"5X c #E4FEF9",
/* pixels */
"+X!.~.@XOXK.p.q._.>X:X1X5X5X4X X",
"3X;XQ.J.P.0.) *.D. X~.+X3X3X|.|.",
"&X%Xw.#.5.Q l ] b.~.N.oX<X,X^.=X",
"R.C.%.F Z M e W >.8.G..X&X&XY.).",
".Xe.U 6 * $ - p G O.m.l.~.].F.-X",
"}.6.g % u 8 7   w ~ t.f.V.G.S.-X",
"n.9.B & 0 @ O i 1 I ..{ $.;.Q..X",
"x.! h & > X o 9 < S A k P :.j.T.",
"=.j 3 t .   o O ; a < 2 x ^ 2.B.",
"X.c % , @ + # : q v 4 1 d H _ +.",
"&.b 3 r = y f # N / C z R  .7.u.",
"o.T V 3 : * 5 n E ,.@.[ ' v.M.(.",
"g.a.} D s K L Y 3.s.c.z.i.M.XX&X",
"M.Z.3.J m | 4.-.d.H.].T. XA.L.&X",
"E.[.y.( ` r.h.`.K.k.).>X=X-X!.W.",
"*X&XL.<.1./.I.'.#X{.U.$X2X<X{.<X"
};
