/* XPM */
static char *minimand__[] = {
/* columns rows colors chars-per-pixel */
"32 32 185 2",
"   c #010000",
".  c #0C0001",
"X  c #030A05",
"o  c #080A05",
"O  c #050708",
"+  c #030E0B",
"@  c #0C0F0A",
"#  c #140001",
"$  c #1C0000",
"%  c #001205",
"&  c #0A1200",
"*  c #02130D",
"=  c #0A100C",
"-  c #0E0012",
";  c #170010",
":  c #031611",
">  c #001A12",
",  c #220000",
"<  c #2D0000",
"1  c #350000",
"2  c #2A1813",
"3  c #002019",
"4  c #182412",
"5  c #11261B",
"6  c #1A241A",
"7  c #282500",
"8  c #352F00",
"9  c #263D1B",
"0  c #163024",
"q  c #1A3523",
"w  c #283229",
"e  c #440200",
"r  c #413222",
"t  c #35401D",
"y  c #114022",
"u  c #15462C",
"i  c #195E2A",
"p  c #195E37",
"a  c #115539",
"s  c #35502C",
"d  c #2B4737",
"f  c #294E31",
"g  c #2F4B39",
"h  c #235637",
"j  c #3E5F38",
"k  c #445135",
"l  c #415238",
"z  c #2C5C42",
"x  c #006243",
"c  c #186A46",
"v  c #1A7048",
"b  c #007752",
"n  c #007D56",
"m  c #007C5A",
"M  c #336544",
"N  c #3B6641",
"B  c #247045",
"V  c #267943",
"C  c #36744F",
"Z  c #206E54",
"A  c #237E5A",
"S  c #00874C",
"D  c #008553",
"F  c #008F5C",
"G  c #1F8151",
"H  c #10845B",
"J  c #12885C",
"K  c #009556",
"L  c #278256",
"P  c #3B8054",
"I  c #00A957",
"U  c #108960",
"Y  c #009667",
"T  c #009B60",
"R  c #00986A",
"E  c #139E6E",
"W  c #00A264",
"Q  c #00A468",
"!  c #00A96A",
"~  c #00B66E",
"^  c #00A070",
"/  c #00AD7E",
"(  c #0CAE7B",
")  c #00B375",
"_  c #00B578",
"`  c #29A374",
"'  c #00C379",
"]  c #00A683",
"[  c #00B184",
"{  c #00B38B",
"}  c #00BC8D",
"|  c #00BC90",
" . c #25AA82",
".. c #00C486",
"X. c #00C58E",
"o. c #00CB8A",
"O. c #00D68F",
"+. c #00D88D",
"@. c #00C691",
"#. c #00CF97",
"$. c #17C090",
"%. c #14CE9D",
"&. c #00D597",
"*. c #00DA94",
"=. c #00DF99",
"-. c #00E09C",
";. c #00D1A0",
":. c #00DCA4",
">. c #00DDAB",
",. c #18DEB5",
"<. c #17DAB9",
"1. c #00E1A5",
"2. c #00E6A8",
"3. c #00EBAC",
"4. c #00EBB3",
"5. c #00EBBB",
"6. c #0DEBBA",
"7. c #00F1B4",
"8. c #00F4BC",
"9. c #00F5C4",
"0. c #00FAC6",
"q. c #00F6C9",
"w. c #00FBCB",
"e. c #18F4CE",
"r. c #00FCD3",
"t. c #09FFDB",
"y. c #13FFD9",
"u. c #23F6CC",
"i. c #23FCD5",
"p. c #2AFAD3",
"a. c #23FDDA",
"s. c #2EFFD9",
"d. c #37F7D1",
"f. c #3BF6D1",
"g. c #37F9D6",
"h. c #38F9D7",
"j. c #35FDDD",
"k. c #00FFE1",
"l. c #34FFE0",
"z. c #3CFFE4",
"x. c #42F3CB",
"c. c #4CF3CD",
"v. c #50F0CC",
"b. c #4CF5D2",
"n. c #47F9D7",
"m. c #42FFDD",
"M. c #4CFADB",
"N. c #51F9D9",
"B. c #5DFADB",
"V. c #62F6D7",
"C. c #65FADD",
"Z. c #6AFADF",
"A. c #7FF9DF",
"S. c #4AFEE3",
"D. c #46FFE8",
"F. c #55FFE2",
"G. c #5DFDE3",
"H. c #5DFFEB",
"J. c #65FCE1",
"K. c #6CFDE4",
"L. c #63FFEE",
"P. c #74FBE4",
"I. c #7CFCE5",
"U. c #76FEE9",
"Y. c #7EFFEC",
"T. c #84FCE6",
"R. c #8CFCE7",
"E. c #84FDE9",
"W. c #8BFDEA",
"Q. c #94FDEB",
"!. c #9CFDEC",
"~. c #8FFFF0",
"^. c #A2FDED",
"/. c #ABFDEF",
"(. c #B1FDEF",
"). c #A6FFF1",
"_. c #ACFEF1",
"`. c #B4FDF0",
"'. c #BCFDF1",
"]. c #C4FDF3",
"[. c #CCFDF5",
"{. c #D3FDF6",
"}. c #DAFDF7",
"|. c #DDFDF8",
" X c #E2FEF8",
/* pixels */
"{.].].].].}.}.}.}.{.].`.].'.`.`.`.].}.|.|.|. X X X X X X X X{.[.",
"}.}.[.].`.[.].{.[.].[./.R.Q.i.W.].{.{.}.}.[.}. X X X X X X X{.[.",
"|.|.}.{.]./.`.[.]././.!.w.8.e.!.'.'.[.{.{.].].|. X X X|.}.[.`.{.",
"|.|.}.{.{.]./.`.'.`.Q.S.4.-.H.^././.[.{.].'.{.}.|.|.|.|.{.'.].|.",
"|.}.}.[.'._.P.!.!.Q.K.*.B J 7.Z.Q.`.[.[.`.'.{.}.|.|.}.|.{.'.}.|.",
"}.{.[.[.`.b.8.F.J.d.k.R # < _ m.^./.`.]./.`.'.{.}.}.}.}.].'.}.|.",
"'.'.`.'.`.u.S } ;.J  .U $ f 4.D.T.Q.).`.^.].{.{.{.}.{.{.[.'.].].",
"[.'.'.!.Y.s.b < 6 $ $ # # a ] %.a.a.B.Q./.].[.[.{.{.{.{.].`.].[.",
"{.{.].A.:.[ 0     * > + X   , g @.Q =.U.`.'.[.`.].{.{.[./.].}.}.",
"[.`./.K./ ,   = X         + *   1 C w.W.Q./.'.^.'.[.[.'.`.{.{.}.",
"[.'._.c.m . :                 * . H >.b.E./.`.!./.].].'./.'.[.|.",
"[.].).v.y . +                 O * , P 9.E.R.!.Q././.'./.'.[.{.}.",
"'.(._.V.u . *                   =   M 5.G.K.U.J.Q.!.I.Q.'.[.{.}.",
"^.Q.R.L.{   :                   o   7 >.k.w.7.7.t.g.9.I.'.'.'.{.",
"`./.Y.<.m   O                   O X < :.#.V i E _ O.r.Q.`.^.'.[.",
"(.~.,.& # +                     O   5 T < # . $ e &.a.W.!.!.'.[.",
").x.n # 3                       O   6 2   > * > # D w.S.Z./.`.'.",
"Q.w.x . *                         X ; - X     *   p o.3.z.Q.!./.",
"B.) w   X                       o   t 4       . * < e W 8.h.B.T.",
"C.5.Z . *                       * $ ! h   > : % , F K &.9.r.q.r.",
"Q.S.| , * O                   @   r 4.X.e # $ - M 2.r.w.Y.W.W.E.",
"Q.5.c ,   =                 = * , ` r.r.o.G Y j 1.t.P.I.R./.`.`.",
"B.+.v ^ d   > +   o O o = *   1 A 8.S.J.l.4.w.2.4.G.Q./.^.!.'.[.",
"I.9.p.r.( 8 ,   X     +   . g { ..p.E.Q.W.K.P.U.q.n.!.(.].'.`.[.",
"(.E.Q.U.6.>.[ z $ q < < z M l 0.S.T.I.!./.^.Q./.P.T.'.].[.[.{.{.",
"].!./.^.U.z.:.9 # L :.$.>.5.I 4.E.^./.!.`.`.!.`.]./.^.'.[.{.{.}.",
"`.^.'.^.Q.m.! ,   k 0.z.G.F.q.f.Q./.'.'.].].`.`.[.[.`./.'.[.{.}.",
"/.'.].`._.N.3.N s ~ q.T.!.!.!._.^.Q.(.].[.[.[.[.{.[.'.[./.].{.}.",
"/.].[.].^.W.y.' 4.w.B.W.Q.`.'.'.'.`.^.`.[.[.{.}.}.{.{.{.[.'.'.'.",
"'.{.{.'./.R.9.7.j.W.^.`.!.!.'.[.[.[.`.(.(.[.{.}.}.|.}.}.{.'.{.].",
"{.{.{.].[.^.W.e.u.Q.^.'.'.'.(.[.{.].'.{.(.].{.}.|.|.|.|.[.].|.}.",
"{.}.}.{.{.`.'.T.M._.'.].[.[.[.{.{.{.{.{.[.'.].}.|.|. X|.].{. X|."
};
