/* XPM */
static char *wholemand__[] = {
/* columns rows colors chars-per-pixel */
"16 16 122 2",
"   c black",
".  c #010000",
"X  c #010100",
"o  c #010001",
"O  c #000101",
"+  c #010101",
"@  c #010201",
"#  c #020102",
"$  c #020202",
"%  c #020303",
"&  c #050000",
"*  c #040706",
"=  c #040707",
"-  c #060A09",
";  c #070B09",
":  c #060B0A",
">  c #070B0A",
",  c #001200",
"<  c #001500",
"1  c #101413",
"2  c #111514",
"3  c #141615",
"4  c #151616",
"5  c #181F1E",
"6  c #002E1B",
"7  c #19201F",
"8  c #1B211F",
"9  c #1C2220",
"0  c #003422",
"q  c #14312B",
"w  c #1C3831",
"e  c #202423",
"r  c #202524",
"t  c #253431",
"y  c #263431",
"u  c #283732",
"i  c #293833",
"p  c #1C493E",
"a  c #2A463E",
"s  c #304C44",
"d  c #285348",
"f  c #31594C",
"g  c #355E52",
"h  c #425D56",
"j  c #466059",
"k  c #586E67",
"l  c #507169",
"z  c #5C746C",
"x  c #577870",
"c  c #618C81",
"v  c #718F86",
"b  c #659084",
"n  c #77958C",
"m  c #859591",
"M  c #899894",
"N  c #8EB1A8",
"B  c #90B3A9",
"V  c #98B8AF",
"C  c #9EBEB4",
"Z  c #A8CBC3",
"A  c #AECEC5",
"S  c #ADCFC7",
"D  c #B0CFC7",
"F  c #B2D2CA",
"G  c #B5D5CD",
"H  c #B6D7CE",
"J  c #BBD8D1",
"K  c #BADBD2",
"L  c #B8E1D7",
"P  c #BBE4DA",
"I  c #C0DCD5",
"U  c #C1E0D8",
"Y  c #C5E3DC",
"T  c #D9EEEA",
"R  c #D4F3EB",
"E  c #D7F4ED",
"W  c #DCF0EC",
"Q  c #E1EFEC",
"!  c #E2F0EC",
"~  c #E5F6F2",
"^  c #E5F6F3",
"/  c #E9F5F3",
"(  c #EAF6F4",
")  c #E7FBF7",
"_  c #EAFDF9",
"`  c #EFFEFB",
"'  c #EBFFFC",
"]  c #EDFFFD",
"[  c #F6F9F9",
"{  c #F7F9F9",
"}  c #F2FCFB",
"|  c #F3FCFB",
" . c #F7FCFB",
".. c #F1FFFC",
"X. c #F2FFFD",
"o. c #F9FBFB",
"O. c #FAFBFB",
"+. c #FBFBFB",
"@. c #FCFBFB",
"#. c #FBFCFB",
"$. c #FCFBFC",
"%. c #FDFBFC",
"&. c #F9FCFC",
"*. c #F9FDFC",
"=. c #FBFCFC",
"-. c #FBFDFD",
";. c #F8FFFF",
":. c #FAFFFF",
">. c gray99",
",. c #FDFCFC",
"<. c #FCFDFC",
"1. c #FDFDFC",
"2. c #FCFCFD",
"3. c #FCFDFD",
"4. c #FDFDFD",
"5. c #FFFDFD",
"6. c #FCFDFE",
"7. c #FFFDFE",
"8. c #FDFEFE",
"9. c #FDFFFF",
"0. c #FEFFFF",
"q. c gray100",
/* pixels */
">.>.>.>.>.>.>.>.<.,.3.:.2.>.>.>.",
">.>.>.>.>.>.>.4.+.,./ U  .@.#.4.",
">.>.>.>.>.>.4.O.9.q.A 6 ' q.q.>.",
">.>.1.>.>.>.%.;.L V k y v J T *.",
">.,.=.>.7.%.8.R f           N q.",
">.,.o...) ` 9.c   r 1 = 8   h ~ ",
"4.+.q.F p l H u   - # @ >   < ! ",
"[ } Z a     q 5   % X O 4   M q.",
"{ | S s     w 7   % + . 3   m 0.",
"4.@.q.G d x K i   : o $ ; & , Q ",
">.,.o.X._ ..0.b   e 2 * 9   j ^ ",
">.1.>.>.5.@.6.E g           B q.",
">.>.1.>.>.>.,.;.P C z t n I W &.",
">.>.>.>.>.>.4.O.0.q.D 0 ] q.q.>.",
">.>.>.>.>.>.>.4.+.$.( Y  .@.=.1.",
">.>.>.>.>.>.>.>.<.,.-.:.>.<.>.>."
};
