/* XPM */
static char *wholemand__[] = {
/* columns rows colors chars-per-pixel */
"32 32 124 2",
"   c #000000",
".  c #090000",
"X  c #030907",
"o  c #060C0A",
"O  c #0A0D0C",
"+  c #100002",
"@  c #13000C",
"#  c #130B0F",
"$  c #001A00",
"%  c #0B100E",
"&  c #001E09",
"*  c #0E1413",
"=  c #0F1916",
"-  c #001F1C",
";  c #121313",
":  c #131816",
">  c #171718",
",  c #161D1B",
"<  c #181C1B",
"1  c #002521",
"2  c #003726",
"3  c #003529",
"4  c #003C2D",
"5  c #08382C",
"6  c #11382F",
"7  c #143930",
"8  c #1E3E35",
"9  c #212726",
"0  c #2E3F3A",
"q  c #004436",
"w  c #0B4033",
"e  c #004738",
"r  c #0F483A",
"t  c #1D453B",
"y  c #1D4A3E",
"u  c #224036",
"i  c #1B4E40",
"p  c #1A5345",
"a  c #185548",
"s  c #2B4E46",
"d  c #394D47",
"f  c #235D4F",
"g  c #32564D",
"h  c #2A6154",
"j  c #376F5E",
"k  c #436B5F",
"l  c #51645F",
"z  c #486B60",
"x  c #5A6D68",
"c  c #477064",
"v  c #4D7369",
"b  c #447D6B",
"n  c #507569",
"m  c #567B74",
"M  c #587F77",
"N  c #4D8072",
"B  c #438978",
"V  c #578075",
"C  c #578779",
"Z  c #5B8479",
"A  c #558B7C",
"S  c #5E887D",
"D  c #5D8E81",
"F  c #4F9382",
"G  c #5D9A88",
"H  c #648D82",
"J  c #609F8E",
"K  c #6A9B8D",
"L  c #789F92",
"P  c #64A593",
"I  c #69A393",
"U  c #73A294",
"Y  c #7CA597",
"T  c #73AD9D",
"R  c #7DAB9D",
"E  c #72BCA7",
"W  c #7ABCAD",
"Q  c #7DC4B0",
"!  c #80AEA1",
"~  c #86B4A5",
"^  c #8ABBB1",
"/  c #93BDB4",
"(  c #8BC3B5",
")  c #8BC7B8",
"_  c #91C2B7",
"`  c #9AC9BA",
"'  c #A0C8BF",
"]  c #ABCCC1",
"[  c #A9D4C6",
"{  c #B5D6CB",
"}  c #B8DED4",
"|  c #A6E1D0",
" . c #B7E1D4",
".. c #B9E0D5",
"X. c #BEE3D9",
"o. c #B0E8D8",
"O. c #BFE8DE",
"+. c #BDEFE3",
"@. c #C3E2DB",
"#. c #C1E8DC",
"$. c #C5E7E0",
"%. c #C3EAE2",
"&. c #CCEBE3",
"*. c #D1EEE6",
"=. c #C3F3E7",
"-. c #C8F1E6",
";. c #C7F2E8",
":. c #CBF5EB",
">. c #CDF9ED",
",. c #D2F5EE",
"<. c #D9F7EF",
"1. c #CCFDF3",
"2. c #D4FBF2",
"3. c #DCFCF4",
"4. c #DFFFF9",
"5. c #E1F0EC",
"6. c #E7F5F2",
"7. c #EEF6F5",
"8. c #E4FFFB",
"9. c #EDFEFB",
"0. c #F1F7F6",
"q. c #F3F8F7",
"w. c #F4FDFC",
"e. c #FCFCFC",
/* pixels */
"e.e.e.e.e.e.e.e.e.e.e.e.e.e.e.e.e.e.e.e.e.w.q.e.e.e.e.e.e.e.e.e.",
"e.e.e.e.e.e.e.e.e.e.e.e.e.e.e.e.e.e.e.e.e.w.9.w.w.e.e.e.e.e.e.e.",
"e.e.e.e.e.e.e.e.e.e.e.e.e.e.e.e.e.e.e.e.e.e.8.9.e.e.e.e.e.e.e.e.",
"e.e.e.e.e.e.e.e.e.e.e.e.e.e.e.e.e.e.e.e.9.8.I } w.e.e.e.e.e.e.e.",
"e.e.e.e.e.e.e.e.e.e.e.e.e.e.e.e.e.e.e.e.8.B   a ;.e.e.e.e.e.e.e.",
"e.e.e.e.e.e.e.e.e.e.e.e.e.e.e.e.e.e.e.e.w.C   y 3.e.e.e.e.e.e.e.",
"e.e.e.e.e.e.e.e.e.e.e.e.e.e.e.9.1.9.4.| ] L   m `  .>.e.e.w.w.e.",
"e.e.e.e.e.e.e.e.e.e.e.e.e.e.e.e.W G R       ;       N =./ O.w.e.",
"e.e.e.e.e.e.e.e.e.e.e.e.e.e.q.w.`     . > ;   % > @   q 4 @.e.e.",
"e.e.e.e.e.e.e.e.e.e.e.e.e.e.2.E 0   : o           X ,   k 3.e.e.",
"e.e.e.e.e.w.w.e.e.w.e.e.e.w.+.8   *                   <   K ,.w.",
"e.e.e.e.e.e.w.,.w.2.3.w.e.9.J   ,                     o . 7 &.e.",
"e.e.e.e.e.w.e.( D v j W 9.<.r . O                     O   8 *.e.",
"e.e.e.e.e.e.-.z         U ..  ;                       o + 5 *.e.",
"e.e.e.e.9.8.!   9 * * #   S   o                       <   H e.e.",
"0.0.7.9.^ e s   o     X O - X                       *   x 6.e.e.",
"q.q.7.9._ f g   o     X O 1 o                       %   l 5.e.e.",
"e.e.e.e.9.9.~   9 * = +   H   o                       <   Z w.e.",
"e.e.e.e.e.e.:.n         R X.  ;                       o + 3 &.e.",
"e.e.e.e.e.e.e.) K V b ) 9.3.i   %                     O   u *.e.",
"e.e.e.e.e.e.9.2.w.3.4.w.e.w.P   ,                     o . 6 $.e.",
"e.e.e.e.e.w.w.e.e.w.e.e.e.e.=.t   *                   <   U <.w.",
"e.e.e.e.e.e.e.e.e.e.e.e.e.e.2.Q d   : O           o ,   c 4.e.e.",
"e.e.e.e.e.e.e.e.e.e.e.e.e.e.w.w.`     . > *   O > +   p 2 @.e.e.",
"e.e.e.e.e.e.e.e.e.e.e.e.e.e.e.w.W I ~ &     ;     $ A >.' %.w.e.",
"e.e.e.e.e.e.e.e.e.e.e.e.e.e.e.9.1.w.8.o.{ Y   M [ #.2.e.e.w.e.e.",
"e.e.e.e.e.e.e.e.e.e.e.e.e.e.e.e.e.e.e.e.w.N   w 3.e.e.e.e.e.e.e.",
"e.e.e.e.e.e.e.e.e.e.e.e.e.e.e.e.e.e.e.e.8.F   h ;.e.e.e.e.e.e.e.",
"e.e.e.e.e.e.e.e.e.e.e.e.e.e.e.e.e.e.e.e.w.8.T X.w.e.e.e.e.e.e.e.",
"e.e.e.e.e.e.e.e.e.e.e.e.e.e.e.e.e.e.e.e.e.e.8.9.e.e.e.e.e.e.e.e.",
"e.e.e.e.e.e.e.e.e.e.e.e.e.e.e.e.e.e.e.e.e.w.7.w.w.e.e.e.e.e.e.e.",
"e.e.e.e.e.e.e.e.e.e.e.e.e.e.e.e.e.e.e.e.e.w.w.e.e.e.e.e.e.e.e.e."
};
